<svg width="25" height="25" viewBox="0 0 25 25" fill="none" xmlns="http://www.w3.org/2000/svg">
<path d="M0 12.5C0 5.59644 5.59644 0 12.5 0V0C19.4036 0 25 5.59644 25 12.5V12.5C25 19.4036 19.4036 25 12.5 25V25C5.59644 25 0 19.4036 0 12.5V12.5Z" fill="#5DDB1C"/>
<mask id="mask0_4322_29174" style="mask-type:luminance" maskUnits="userSpaceOnUse" x="7" y="5" width="12" height="15">
<path fill-rule="evenodd" clip-rule="evenodd" d="M7.75394 5C7.5621 5 7.35917 5.01394 7.14517 5.0422V5.0422C7.09741 5.04848 7 5.16792 7 5.23132V5.23132V11.1299V13.3115V15.9684C7 16.5444 7.30399 17.0768 7.79756 17.3647V17.3647L11.9431 19.784C12.1899 19.928 12.4652 20 12.7406 20V20C13.016 20 13.2914 19.928 13.5383 19.784V19.784L17.6838 17.3647C18.1773 17.0768 18.4813 16.5444 18.4813 15.9684V15.9684V11.1299C18.4813 10.5539 18.1773 10.0216 17.6838 9.73352V9.73352L13.5383 7.31425C13.2914 7.17028 13.016 7.09825 12.7406 7.09825V7.09825C12.4652 7.09825 12.1899 7.17028 11.9431 7.31425V7.31425L10.022 8.4361V7.33192C10.022 5.80878 9.2114 5 7.75394 5ZM9.43914 13.6326C9.43914 11.5568 11.1041 9.87396 13.1576 9.87396V9.87396C14.1189 9.87396 15.0753 10.3487 15.7352 10.9537V10.9537C15.7636 10.9796 15.8007 11.0545 15.7352 11.1206V11.1206C15.6775 11.1791 13.688 13.0762 13.2476 13.5382V13.5382C13.1902 13.5986 13.1887 13.6639 13.2476 13.7234V13.7234C13.3001 13.7766 15.3325 15.6574 15.7645 16.0938V16.0938C15.8178 16.1477 15.7839 16.2412 15.7512 16.272V16.272C15.0871 16.8973 14.1369 17.3913 13.1576 17.3913V17.3913C11.1041 17.3913 9.43914 15.7085 9.43914 13.6326V13.6326Z" fill="white"/>
</mask>
<g mask="url(#mask0_4322_29174)">
<path fill-rule="evenodd" clip-rule="evenodd" d="M7.75394 5C7.5621 5 7.35917 5.01394 7.14517 5.0422V5.0422C7.09741 5.04848 7 5.16792 7 5.23132V5.23132V11.1299V13.3115V15.9684C7 16.5444 7.30399 17.0768 7.79756 17.3647V17.3647L11.9431 19.784C12.1899 19.928 12.4652 20 12.7406 20V20C13.016 20 13.2914 19.928 13.5383 19.784V19.784L17.6838 17.3647C18.1773 17.0768 18.4813 16.5444 18.4813 15.9684V15.9684V11.1299C18.4813 10.5539 18.1773 10.0216 17.6838 9.73352V9.73352L13.5383 7.31425C13.2914 7.17028 13.016 7.09825 12.7406 7.09825V7.09825C12.4652 7.09825 12.1899 7.17028 11.9431 7.31425V7.31425L10.022 8.4361V7.33192C10.022 5.80878 9.2114 5 7.75394 5ZM9.43914 13.6326C9.43914 11.5568 11.1041 9.87396 13.1576 9.87396V9.87396C14.1189 9.87396 15.0753 10.3487 15.7352 10.9537V10.9537C15.7636 10.9796 15.8007 11.0545 15.7352 11.1206V11.1206C15.6775 11.1791 13.688 13.0762 13.2476 13.5382V13.5382C13.1902 13.5986 13.1887 13.6639 13.2476 13.7234V13.7234C13.3001 13.7766 15.3325 15.6574 15.7645 16.0938V16.0938C15.8178 16.1477 15.7839 16.2412 15.7512 16.272V16.272C15.0871 16.8973 14.1369 17.3913 13.1576 17.3913V17.3913C11.1041 17.3913 9.43914 15.7085 9.43914 13.6326V13.6326Z" fill="white"/>
</g>
<path fill-rule="evenodd" clip-rule="evenodd" d="M12.4028 12.5588C12.4028 12.906 12.1243 13.1874 11.7809 13.1874C11.4374 13.1874 11.1589 12.906 11.1589 12.5588C11.1589 12.2115 11.4374 11.9302 11.7809 11.9302C12.1243 11.9302 12.4028 12.2115 12.4028 12.5588" fill="white"/>
</svg>
