<svg width="20" height="19" viewBox="0 0 20 19" fill="none" xmlns="http://www.w3.org/2000/svg">
<path id="Vector" fill-rule="evenodd" clip-rule="evenodd" d="M8.85562 0.783043C9.25038 -0.261014 10.7496 -0.261014 11.1443 0.783043L13.0796 5.90197L18.8057 6.07637C19.8745 6.10901 20.4912 7.50799 19.5018 8.24083L15.0089 11.5683L16.5887 16.7645C16.7597 17.3271 16.4966 17.8342 16.1215 18.0941C15.7504 18.3512 15.2107 18.415 14.7481 18.1155L9.99995 15.0412L5.25188 18.1155C4.78928 18.415 4.24955 18.3512 3.87846 18.0941C3.50341 17.8342 3.24026 17.3271 3.41129 16.7645L4.99106 11.5683L0.498177 8.24083C-0.491286 7.50799 0.125409 6.10901 1.19427 6.07637L6.92026 5.90197L8.85562 0.783043ZM9.99995 2.46434L8.37028 6.77474C8.19063 7.25009 7.741 7.54271 7.26374 7.55728L2.56591 7.70038L6.24537 10.4254C6.64396 10.7206 6.83169 11.2379 6.68134 11.7326L5.36635 16.0578L9.32922 13.492C9.7363 13.2284 10.2637 13.2284 10.6708 13.492L14.6336 16.0578L13.3186 11.7326C13.1682 11.2379 13.356 10.7206 13.7546 10.4254L17.434 7.70038L12.7362 7.55728C12.259 7.54271 11.8093 7.25009 11.6297 6.77474L9.99995 2.46434Z" fill="#67707B"/>
</svg>
