<svg width="18" height="21" viewBox="0 0 18 21" fill="none" xmlns="http://www.w3.org/2000/svg">
<path d="M5.32071 12.2667C4.95664 11.9619 4.59257 11.6572 4.22851 11.3525C3.86444 11.0477 3.50037 10.743 3.1363 10.4383C2.77223 10.1335 2.40816 9.82879 2.04409 9.52406C1.68003 9.21932 1.31596 8.91459 0.951888 8.60985C0.949708 8.60796 0.947544 8.60618 0.945127 8.60411C0.94531 8.37323 0.945493 8.14235 0.945676 7.91146C0.94584 7.67763 0.946091 7.44368 0.946255 7.20984C0.946419 6.97601 0.946686 6.74216 0.946835 6.50823C0.946999 6.27439 0.947266 6.04055 0.947415 5.80661C0.947579 5.57278 0.947846 5.33893 0.94801 5.10509C0.94819 4.93345 0.948282 4.76193 0.948463 4.59029C0.948875 4.59023 0.9492 4.59029 0.949628 4.59033C0.949555 4.52846 0.949585 4.46658 0.949512 4.40471C0.949351 4.17082 0.949206 3.93703 0.949148 3.70313C1.22009 3.7029 1.49094 3.7028 1.76188 3.70257C2.03282 3.70235 2.30367 3.70224 2.57461 3.70202C2.84555 3.7018 3.1164 3.70169 3.38734 3.70147C3.65828 3.70124 3.92914 3.70114 4.20008 3.70091C4.20023 3.99753 4.20039 4.29424 4.20054 4.59085C3.87678 4.59107 3.55301 4.59128 3.22925 4.59149C2.76569 4.59183 2.30212 4.59207 1.83856 4.5924C1.83839 4.74929 1.83832 4.90615 1.83815 5.06303C1.83765 5.68337 1.83705 6.30371 1.83656 6.92404C1.83618 7.34554 1.83582 7.76715 1.83555 8.18863C1.98801 8.31628 2.14046 8.44392 2.29291 8.57156C2.76859 8.96977 3.24437 9.36797 3.72005 9.76629C4.19573 10.1645 4.67151 10.5627 5.14719 10.961C5.39546 11.1689 5.64372 11.3767 5.89197 11.5844C5.70149 11.8119 5.5111 12.0393 5.32062 12.2668L5.32071 12.2667Z" fill="url(#paint0_radial_1258_473326)"/>
<path d="M11.4468 12.2624C11.8105 11.9571 12.1742 11.652 12.538 11.3468C12.9017 11.0415 13.2654 10.7364 13.6291 10.4311C13.9928 10.1259 14.3565 9.82066 14.7203 9.51551C15.084 9.21027 15.4477 8.90513 15.8114 8.59989C15.8135 8.5981 15.8158 8.59618 15.8181 8.59414C15.8176 8.36325 15.8172 8.13235 15.8167 7.90146C15.8163 7.66762 15.8158 7.43377 15.8153 7.19993C15.8149 6.96609 15.8144 6.73224 15.8139 6.4983C15.8134 6.26445 15.813 6.03061 15.8125 5.79676C15.812 5.56292 15.8116 5.32908 15.8111 5.09523C15.8108 4.92367 15.8104 4.75211 15.8101 4.58044C15.8097 4.5805 15.8093 4.58044 15.8089 4.5804C15.8089 4.51852 15.8089 4.45665 15.8088 4.39479C15.8086 4.1609 15.8085 3.92711 15.8083 3.69322C15.5374 3.69344 15.2665 3.69355 14.9956 3.69377C14.7246 3.694 14.4538 3.6941 14.1829 3.69433C13.9119 3.69445 13.6411 3.69466 13.3701 3.69488C13.0992 3.695 12.8283 3.69521 12.5574 3.69543C12.5575 3.99205 12.5577 4.28876 12.5579 4.58537C12.8816 4.58516 13.2054 4.58495 13.5292 4.58474C13.9927 4.5844 14.4563 4.58416 14.9198 4.58383C14.9202 4.74073 14.9204 4.89755 14.9208 5.05446C14.922 5.67485 14.9233 6.29513 14.9245 6.91552C14.9253 7.33706 14.9262 7.75858 14.927 8.18012C14.7746 8.30799 14.6223 8.43575 14.47 8.56361C13.9947 8.96248 13.5194 9.36135 13.0441 9.76011C12.5688 10.159 12.0936 10.5578 11.6183 10.9566C11.3703 11.1648 11.1222 11.3729 10.8742 11.5811C11.065 11.8083 11.2557 12.0354 11.4464 12.2627L11.4468 12.2624Z" fill="url(#paint1_radial_1258_473326)"/>
<path d="M6.68069 16.4764C6.79666 16.4763 6.91252 16.4762 7.02849 16.4762C7.14447 16.4761 7.26032 16.476 7.3763 16.4759C7.49217 16.4759 7.60813 16.4758 7.724 16.4757C7.83997 16.4757 7.95583 16.4756 8.0718 16.4755C8.18767 16.4755 8.30363 16.4753 8.4195 16.4753C8.53537 16.4753 8.65133 16.4751 8.76731 16.4751C8.88327 16.4749 8.99914 16.4749 9.11501 16.4749C9.23098 16.4748 9.34684 16.4747 9.46281 16.4747C9.57879 16.4746 9.69464 16.4745 9.81062 16.4744C9.92659 16.4744 10.0424 16.4743 10.1584 16.4742C10.1169 16.2854 10.0754 16.0967 10.0339 15.908C9.99244 15.7192 9.95095 15.5305 9.90946 15.3417C9.86796 15.1529 9.82647 14.9642 9.78488 14.7755C9.74327 14.5867 9.70178 14.398 9.66028 14.2092C9.61879 14.0205 9.57731 13.8318 9.5358 13.643C9.49431 13.4543 9.45272 13.2656 9.41122 13.0768C9.36973 12.888 9.32824 12.6993 9.28676 12.5106C9.22877 12.5106 9.17088 12.5107 9.1129 12.5107C9.05491 12.5107 8.99703 12.5107 8.93904 12.5107C8.88105 12.5107 8.82317 12.5108 8.76518 12.5108C8.70719 12.5108 8.64931 12.5108 8.59134 12.5109C8.53335 12.511 8.47547 12.511 8.4175 12.5111C8.35951 12.5111 8.30162 12.5111 8.24364 12.5111C8.18565 12.5112 8.12766 12.5112 8.06979 12.5113C8.01181 12.5113 7.95392 12.5113 7.89595 12.5114C7.83796 12.5115 7.78008 12.5115 7.72211 12.5116C7.66412 12.5116 7.60613 12.5116 7.54825 12.5117C7.50699 12.7005 7.46561 12.8893 7.42434 13.078C7.38298 13.2669 7.3417 13.4556 7.30043 13.6444C7.25917 13.8332 7.21789 14.022 7.17662 14.2107C7.13536 14.3996 7.09398 14.5883 7.05272 14.7772C7.01144 14.9659 6.97008 15.1548 6.92881 15.3435C6.88755 15.5324 6.84627 15.7211 6.8049 15.9099C6.76364 16.0987 6.72236 16.2875 6.681 16.4763L6.68069 16.4764Z" fill="url(#paint2_radial_1258_473326)"/>
<g filter="url(#filter0_i_1258_473326)">
<path d="M4.85436 11.9401C5.04348 12.1445 5.24475 12.3328 5.45677 12.5034C5.67047 12.6755 5.89506 12.8293 6.12891 12.9632C6.36426 13.0981 6.60902 13.2127 6.86178 13.3053C7.11521 13.3981 7.37664 13.469 7.64437 13.5158C7.91395 13.5629 8.18767 13.5848 8.46143 13.5822C8.73178 13.5795 8.99723 13.5524 9.25658 13.5028C9.51593 13.4533 9.76895 13.3811 10.0144 13.2882C10.2599 13.1952 10.4977 13.0814 10.7266 12.9485C10.9554 12.8157 11.1752 12.6637 11.3844 12.4943C11.5937 12.3249 11.7925 12.1381 11.9795 11.9356C12.5209 11.3492 12.9628 10.6314 13.2706 9.82358C13.5735 9.0284 13.7466 8.14613 13.7571 7.2165C13.7675 6.32124 13.7567 5.42526 13.7562 4.52996C13.7556 3.63444 13.7551 2.73891 13.7546 1.8434C13.3983 1.84362 13.0421 1.84383 12.686 1.84403C12.3297 1.84425 11.9735 1.84447 11.6172 1.84469C11.261 1.8449 10.9049 1.84511 10.5486 1.84543C10.1924 1.84564 9.83616 1.84586 9.47992 1.84608C9.12368 1.84629 8.76744 1.84651 8.4112 1.84673C8.05496 1.84694 7.69882 1.84715 7.34258 1.84736C6.98634 1.84758 6.6301 1.8478 6.27386 1.84801C5.91762 1.84823 5.56138 1.84845 5.20514 1.84867C4.8489 1.84888 4.49266 1.8491 4.13642 1.84932C3.78018 1.84953 3.42394 1.84975 3.06771 1.84997C3.06818 2.74276 3.06875 3.63553 3.06922 4.52831C3.06978 5.42098 3.06176 6.31409 3.07115 7.2066C3.08068 8.13387 3.25197 9.01399 3.55256 9.80763C3.81981 10.5136 4.18947 11.1514 4.63852 11.6931C4.70851 11.7776 4.78047 11.8599 4.85429 11.9397L4.85436 11.9401Z" fill="url(#paint3_radial_1258_473326)"/>
</g>
<g filter="url(#filter1_i_1258_473326)">
<path d="M2.45481 3.00781C2.57757 3.13009 2.7469 3.20556 2.93381 3.20535C3.15352 3.20519 3.37322 3.20503 3.59295 3.20498C3.99452 3.20473 4.39609 3.20449 4.79767 3.20424C5.19924 3.20399 5.60081 3.20375 6.00239 3.2035C6.40396 3.20326 6.80553 3.20301 7.20711 3.20277C7.60868 3.20252 8.01025 3.20227 8.41183 3.20203C8.8134 3.20178 9.21497 3.20154 9.61655 3.20129C10.0181 3.20105 10.4197 3.2008 10.8212 3.20057C11.2227 3.20032 11.6243 3.20008 12.0259 3.19983C12.4275 3.19959 12.829 3.19934 13.2306 3.19909C13.4503 3.19894 13.67 3.19878 13.8897 3.19873C14.0767 3.19862 14.2459 3.12295 14.3685 3.00057C14.4301 2.93908 14.4799 2.86596 14.5142 2.78462C14.5487 2.70336 14.5676 2.61399 14.5676 2.52017C14.5675 2.42637 14.5485 2.33708 14.514 2.2558C14.4795 2.17451 14.4296 2.10142 14.368 2.04012C14.2452 1.91784 14.0759 1.84237 13.889 1.84258C13.6693 1.84274 13.4496 1.8429 13.2298 1.84295C12.8283 1.8432 12.4268 1.84343 12.0252 1.84367C11.6236 1.84392 11.2221 1.84417 10.8205 1.84441C10.4189 1.84466 10.0174 1.8449 9.61589 1.84513C9.21431 1.84538 8.81274 1.84562 8.41117 1.84587C8.00959 1.84612 7.60802 1.84636 7.20645 1.84661C6.80487 1.84685 6.4033 1.8471 6.00173 1.84734C5.60015 1.84759 5.19858 1.84784 4.79701 1.84808C4.39543 1.84833 3.99386 1.84857 3.59228 1.84882C3.37258 1.84898 3.15287 1.84913 2.93316 1.84929C2.74624 1.8494 2.57704 1.92507 2.45436 2.04745C2.39278 2.10883 2.343 2.18205 2.30864 2.2633C2.27418 2.34455 2.25527 2.43393 2.25527 2.52774C2.25537 2.62155 2.27441 2.71083 2.30891 2.79212C2.34341 2.8734 2.39324 2.94649 2.45491 3.0078L2.45481 3.00781Z" fill="url(#paint4_linear_1258_473326)"/>
</g>
<path d="M4.24783 19.1728C4.52605 19.1726 4.80428 19.1725 5.08259 19.1722C5.36092 19.172 5.63915 19.1719 5.91736 19.1716C6.19558 19.1715 6.47381 19.1713 6.75214 19.1712C7.03036 19.171 7.30859 19.1709 7.5869 19.1706C7.86513 19.1704 8.14335 19.1703 8.42157 19.17C8.69989 19.1699 8.97812 19.1697 9.25635 19.1695C9.53457 19.1694 9.81278 19.1691 10.091 19.169C10.3692 19.1688 10.6475 19.1687 10.9258 19.1684C11.204 19.1682 11.4822 19.1681 11.7604 19.1678C12.0387 19.1677 12.3169 19.1675 12.5951 19.1673C12.595 19.0389 12.5949 18.9106 12.5949 18.7822C12.5949 18.6538 12.5947 18.5256 12.5947 18.3972C12.5946 18.2688 12.5945 18.1405 12.5945 18.0121C12.5944 17.8839 12.5944 17.7556 12.5943 17.6272C12.5942 17.4988 12.5942 17.3705 12.5941 17.2421C12.594 17.1139 12.5939 16.9855 12.5939 16.8572C12.5938 16.7289 12.5937 16.6005 12.5936 16.4723C12.3154 16.4724 12.0372 16.4726 11.759 16.4728C11.4807 16.473 11.2024 16.4732 10.9243 16.4734C10.6461 16.4736 10.3677 16.4737 10.0895 16.474C9.8113 16.4741 9.53308 16.4743 9.25476 16.4746C8.97645 16.4748 8.69831 16.4749 8.41998 16.475C8.14176 16.4752 7.86355 16.4754 7.58532 16.4756C7.3071 16.4757 7.02887 16.4759 6.75056 16.4762C6.47223 16.4763 6.194 16.4765 5.91578 16.4766C5.63755 16.4768 5.35922 16.477 5.08101 16.4772C4.80279 16.4774 4.52446 16.4775 4.24625 16.4778C4.24634 16.6061 4.24644 16.7345 4.24642 16.8628C4.24652 16.9911 4.24661 17.1194 4.24659 17.2477C4.2467 17.3761 4.24678 17.5044 4.24678 17.6327C4.24687 17.761 4.24696 17.8893 4.24695 18.0177C4.24706 18.1461 4.24714 18.2743 4.24714 18.4027C4.24725 18.5311 4.24733 18.6594 4.24733 18.7878C4.24743 18.9162 4.24752 19.0444 4.24752 19.1728L4.24783 19.1728Z" fill="url(#paint5_linear_1258_473326)"/>
<g filter="url(#filter2_d_1258_473326)">
<path fill-rule="evenodd" clip-rule="evenodd" d="M10.2723 8.00865C10.079 8.18932 9.9868 8.45462 10.0264 8.71623C10.1263 9.3759 9.42155 9.86365 8.83492 9.54584C8.60236 9.41985 8.31763 9.41604 8.08129 9.53478C7.48751 9.8331 6.79743 9.3258 6.92413 8.67348C6.97478 8.41265 6.89261 8.14364 6.70492 7.95559C6.23559 7.48537 6.52472 6.6789 7.18355 6.59333C7.44597 6.55924 7.68059 6.39592 7.80301 6.16131C8.11117 5.5707 8.96837 5.57872 9.25318 6.18093C9.36638 6.4203 9.59074 6.58878 9.85224 6.63028C10.5111 6.73483 10.7596 7.55311 10.2723 8.00865Z" fill="#FFE7A2"/>
<path fill-rule="evenodd" clip-rule="evenodd" d="M10.2723 8.00865C10.079 8.18932 9.9868 8.45462 10.0264 8.71623C10.1263 9.3759 9.42155 9.86365 8.83492 9.54584C8.60236 9.41985 8.31763 9.41604 8.08129 9.53478C7.48751 9.8331 6.79743 9.3258 6.92413 8.67348C6.97478 8.41265 6.89261 8.14364 6.70492 7.95559C6.23559 7.48537 6.52472 6.6789 7.18355 6.59333C7.44597 6.55924 7.68059 6.39592 7.80301 6.16131C8.11117 5.5707 8.96837 5.57872 9.25318 6.18093C9.36638 6.4203 9.59074 6.58878 9.85224 6.63028C10.5111 6.73483 10.7596 7.55311 10.2723 8.00865Z" fill="#FFD24E"/>
<mask id="mask0_1258_473326" style="mask-type:luminance" maskUnits="userSpaceOnUse" x="6" y="5" width="5" height="5">
<path fill-rule="evenodd" clip-rule="evenodd" d="M10.2715 8.0089C10.0782 8.18957 9.98601 8.45487 10.0256 8.71647C10.1255 9.37614 9.42075 9.8639 8.83412 9.54608C8.60157 9.42009 8.31684 9.41629 8.0805 9.53503C7.48671 9.83335 6.79664 9.32604 6.92333 8.67372C6.97399 8.4129 6.89182 8.14388 6.70412 7.95583C6.23479 7.48561 6.52393 6.67914 7.18275 6.59357C7.44518 6.55949 7.6798 6.39617 7.80222 6.16155C8.11038 5.57095 8.96758 5.57896 9.25238 6.18118C9.36558 6.42054 9.58994 6.58902 9.85145 6.63052C10.5103 6.73508 10.7589 7.55336 10.2715 8.0089Z" fill="white"/>
</mask>
<g mask="url(#mask0_1258_473326)">
<path fill-rule="evenodd" clip-rule="evenodd" d="M6.73216 10.1446C6.73216 10.1446 8.27234 8.02452 8.55138 8.0659C8.83041 8.10727 10.1025 10.265 10.1025 10.265L6.73216 10.1446Z" fill="url(#paint6_linear_1258_473326)"/>
<path fill-rule="evenodd" clip-rule="evenodd" d="M6.00968 8.84001C6.00968 8.84001 8.34714 8.05357 8.23683 7.76621C8.12652 7.47884 5.46415 7.0338 5.46415 7.0338L6.00968 8.84001Z" fill="url(#paint7_linear_1258_473326)"/>
<path fill-rule="evenodd" clip-rule="evenodd" d="M11.6706 6.71482C11.6706 6.71482 8.61966 8.19397 8.50935 7.9066C8.39904 7.61924 10.2695 5.68459 10.2695 5.68459L11.6706 6.71482Z" fill="url(#paint8_linear_1258_473326)"/>
<path fill-rule="evenodd" clip-rule="evenodd" d="M6.88353 5.43661C6.88353 5.43661 8.06288 7.52037 8.29971 7.42946C8.53654 7.33855 8.55147 4.17411 8.55147 4.17411L6.88353 5.43661Z" fill="url(#paint9_linear_1258_473326)"/>
</g>
<path d="M10.1016 7.82601C9.84805 8.06296 9.72728 8.41059 9.77924 8.75366C9.84767 9.20547 9.36254 9.54736 8.954 9.32602C8.64918 9.16088 8.27806 9.15615 7.96906 9.31139C7.55342 9.52021 7.08399 9.1616 7.16954 8.72114C7.23603 8.3788 7.12818 8.02576 6.88186 7.77898C6.56522 7.46174 6.75382 6.90124 7.21575 6.84125C7.55884 6.79668 7.86434 6.58421 8.02465 6.27696C8.23991 5.86441 8.8331 5.87745 9.02718 6.28782C9.17561 6.60168 9.46979 6.82271 9.81306 6.87719C10.2651 6.94892 10.4378 7.51171 10.1016 7.82601Z" stroke="#FEE291" stroke-opacity="0.3" stroke-width="0.5"/>
<mask id="mask1_1258_473326" style="mask-type:luminance" maskUnits="userSpaceOnUse" x="6" y="5" width="5" height="5">
<path fill-rule="evenodd" clip-rule="evenodd" d="M10.2723 8.00865C10.079 8.18932 9.9868 8.45462 10.0264 8.71623C10.1263 9.3759 9.42155 9.86365 8.83492 9.54584C8.60236 9.41985 8.31763 9.41604 8.08129 9.53478C7.48751 9.8331 6.79743 9.3258 6.92413 8.67348C6.97478 8.41265 6.89261 8.14364 6.70492 7.95559C6.23559 7.48537 6.52472 6.6789 7.18355 6.59333C7.44597 6.55924 7.68059 6.39592 7.80301 6.16131C8.11117 5.5707 8.96837 5.57872 9.25318 6.18093C9.36638 6.4203 9.59074 6.58878 9.85224 6.63028C10.5111 6.73483 10.7596 7.55311 10.2723 8.00865Z" fill="white"/>
<path d="M10.1016 7.82601C9.84805 8.06296 9.72728 8.41059 9.77924 8.75366C9.84767 9.20547 9.36254 9.54736 8.954 9.32602C8.64918 9.16088 8.27806 9.15615 7.96906 9.31139C7.55342 9.52021 7.08399 9.1616 7.16954 8.72114C7.23603 8.3788 7.12818 8.02576 6.88186 7.77898C6.56522 7.46174 6.75382 6.90124 7.21575 6.84125C7.55884 6.79668 7.86434 6.58421 8.02465 6.27696C8.23991 5.86441 8.8331 5.87745 9.02718 6.28782C9.17561 6.60168 9.46979 6.82271 9.81306 6.87719C10.2651 6.94892 10.4378 7.51171 10.1016 7.82601Z" stroke="white" stroke-width="0.5"/>
</mask>
<g mask="url(#mask1_1258_473326)">
</g>
</g>
<defs>
<filter id="filter0_i_1258_473326" x="3.06659" y="-1.15662" width="10.695" height="14.739" filterUnits="userSpaceOnUse" color-interpolation-filters="sRGB">
<feFlood flood-opacity="0" result="BackgroundImageFix"/>
<feBlend mode="normal" in="SourceGraphic" in2="BackgroundImageFix" result="shape"/>
<feColorMatrix in="SourceAlpha" type="matrix" values="0 0 0 0 0 0 0 0 0 0 0 0 0 0 0 0 0 0 127 0" result="hardAlpha"/>
<feOffset dy="-3"/>
<feGaussianBlur stdDeviation="2"/>
<feComposite in2="hardAlpha" operator="arithmetic" k2="-1" k3="1"/>
<feColorMatrix type="matrix" values="0 0 0 0 0.839216 0 0 0 0 0.45098 0 0 0 0 0.156863 0 0 0 0.7 0"/>
<feBlend mode="normal" in2="shape" result="effect1_innerShadow_1258_473326"/>
</filter>
<filter id="filter1_i_1258_473326" x="2.25525" y="1.84253" width="12.3124" height="2.11279" filterUnits="userSpaceOnUse" color-interpolation-filters="sRGB">
<feFlood flood-opacity="0" result="BackgroundImageFix"/>
<feBlend mode="normal" in="SourceGraphic" in2="BackgroundImageFix" result="shape"/>
<feColorMatrix in="SourceAlpha" type="matrix" values="0 0 0 0 0 0 0 0 0 0 0 0 0 0 0 0 0 0 127 0" result="hardAlpha"/>
<feOffset dy="0.75"/>
<feGaussianBlur stdDeviation="0.5"/>
<feComposite in2="hardAlpha" operator="arithmetic" k2="-1" k3="1"/>
<feColorMatrix type="matrix" values="0 0 0 0 0.99869 0 0 0 0 0.769844 0 0 0 0 0.346479 0 0 0 1 0"/>
<feBlend mode="normal" in2="shape" result="effect1_innerShadow_1258_473326"/>
</filter>
<filter id="filter2_d_1258_473326" x="5.47314" y="5.72375" width="6.05457" height="5.92188" filterUnits="userSpaceOnUse" color-interpolation-filters="sRGB">
<feFlood flood-opacity="0" result="BackgroundImageFix"/>
<feColorMatrix in="SourceAlpha" type="matrix" values="0 0 0 0 0 0 0 0 0 0 0 0 0 0 0 0 0 0 127 0" result="hardAlpha"/>
<feOffset dy="1"/>
<feGaussianBlur stdDeviation="0.5"/>
<feColorMatrix type="matrix" values="0 0 0 0 0.863674 0 0 0 0 0.46754 0 0 0 0 0.0499934 0 0 0 0.6 0"/>
<feBlend mode="normal" in2="BackgroundImageFix" result="effect1_dropShadow_1258_473326"/>
<feBlend mode="normal" in="SourceGraphic" in2="effect1_dropShadow_1258_473326" result="shape"/>
</filter>
<radialGradient id="paint0_radial_1258_473326" cx="0" cy="0" r="1" gradientUnits="userSpaceOnUse" gradientTransform="translate(1.66336 6.40659) rotate(133.291) scale(3.62704 5.26305)">
<stop stop-color="#FFD382"/>
<stop offset="1" stop-color="#DD852E"/>
</radialGradient>
<radialGradient id="paint1_radial_1258_473326" cx="0" cy="0" r="1" gradientUnits="userSpaceOnUse" gradientTransform="translate(14.8828 7.29321) rotate(19.7532) scale(3.99167 4.90743)">
<stop stop-color="#FFD382"/>
<stop offset="1" stop-color="#DD852E"/>
</radialGradient>
<radialGradient id="paint2_radial_1258_473326" cx="0" cy="0" r="1" gradientUnits="userSpaceOnUse" gradientTransform="translate(8.00517 13.4236) rotate(60.0647) scale(4.59351 3.94805)">
<stop stop-color="#FFC760"/>
<stop offset="0.562828" stop-color="#E59534"/>
<stop offset="1" stop-color="#D6742A"/>
</radialGradient>
<radialGradient id="paint3_radial_1258_473326" cx="0" cy="0" r="1" gradientUnits="userSpaceOnUse" gradientTransform="translate(4.09823 3.39929) rotate(48.6351) scale(16.3867 15.8746)">
<stop stop-color="#FFC65D"/>
<stop offset="0.493904" stop-color="#EDA73A"/>
<stop offset="1" stop-color="#D77729"/>
</radialGradient>
<linearGradient id="paint4_linear_1258_473326" x1="6.12059" y1="2.33598" x2="6.29019" y2="3.53756" gradientUnits="userSpaceOnUse">
<stop stop-color="#FFD790"/>
<stop offset="0.635895" stop-color="#F2B03A"/>
<stop offset="1" stop-color="#ED9545"/>
</linearGradient>
<linearGradient id="paint5_linear_1258_473326" x1="5.29914" y1="16.8" x2="5.62662" y2="19.5703" gradientUnits="userSpaceOnUse">
<stop stop-color="#FB8E44"/>
<stop offset="0.300447" stop-color="#FFB481"/>
<stop offset="0.397183" stop-color="#F6A772"/>
<stop offset="0.729065" stop-color="#C25D19"/>
<stop offset="1" stop-color="#A14E14"/>
</linearGradient>
<linearGradient id="paint6_linear_1258_473326" x1="8.23498" y1="9.19457" x2="9.15443" y2="8.37271" gradientUnits="userSpaceOnUse">
<stop stop-color="#FFAF27"/>
<stop offset="1" stop-color="#FFA220" stop-opacity="0.01"/>
</linearGradient>
<linearGradient id="paint7_linear_1258_473326" x1="6.12313" y1="7.49797" x2="7.10453" y2="8.3495" gradientUnits="userSpaceOnUse">
<stop stop-color="#FFAF27"/>
<stop offset="1" stop-color="#FFA220" stop-opacity="0.01"/>
</linearGradient>
<linearGradient id="paint8_linear_1258_473326" x1="10.5963" y1="6.1616" x2="10.6562" y2="7.33592" gradientUnits="userSpaceOnUse">
<stop stop-color="#FFAF27"/>
<stop offset="1" stop-color="#FFA220" stop-opacity="0.01"/>
</linearGradient>
<linearGradient id="paint9_linear_1258_473326" x1="7.49304" y1="5.68889" x2="8.95904" y2="6.33288" gradientUnits="userSpaceOnUse">
<stop stop-color="#FFAF27"/>
<stop offset="1" stop-color="#FFA220" stop-opacity="0.01"/>
</linearGradient>
</defs>
</svg>
